<?xml version="1.0" encoding="utf-8"?>
<!-- Generator: Adobe Illustrator 16.0.0, SVG Export Plug-In . SVG Version: 6.00 Build 0)  -->
<!DOCTYPE svg PUBLIC "-//W3C//DTD SVG 1.1//EN" "http://www.w3.org/Graphics/SVG/1.1/DTD/svg11.dtd">
<svg version="1.1" id="Layer_1" xmlns="http://www.w3.org/2000/svg" xmlns:xlink="http://www.w3.org/1999/xlink" x="0px" y="0px"
	 width="142px" height="32px" viewBox="0 0 142 32" style="enable-background:new 0 0 142 32;" xml:space="preserve">
<g>
	<path style="fill:#ED2524;" d="M2.738,24.304c1.828,1.099,4.434,1.968,7.27,1.968c2.564,0,4.896-1.188,4.896-3.615
		c0-1.738-1.326-2.879-4.163-4.342c-3.294-1.785-6.403-4.163-6.403-8.188c0-6.222,5.445-10.015,12.167-10.015
		c3.75,0,5.946,0.822,7.271,1.553L21.72,7.152c-1.007-0.549-3.203-1.418-5.763-1.371c-3.065,0-4.666,1.554-4.666,3.246
		c0,1.785,1.876,2.884,4.481,4.346c3.749,1.965,6.13,4.48,6.13,8.142c0,6.858-5.673,10.382-12.533,10.382
		c-4.299,0-7.365-1.1-8.828-2.197L2.738,24.304z"/>
	<path style="fill:#ED2524;" d="M41.199,30.158c-2.606,1.327-5.854,1.738-8.322,1.738c-6.404,0-9.697-3.615-9.697-9.422
		c0-6.814,4.939-13.906,13.037-13.906c4.527,0,7.773,2.517,7.773,6.678c0,5.719-5.534,7.777-14.498,7.547
		c0,0.645,0.229,1.648,0.686,2.291c0.868,1.142,2.379,1.736,4.301,1.736c2.423,0,4.48-0.549,6.266-1.418L41.199,30.158z
		 M35.393,13.373c-3.064,0-4.803,2.513-5.259,4.617c5.118,0.049,7.683-0.684,7.683-2.698C37.816,14.151,36.901,13.373,35.393,13.373
		z"/>
	<path style="fill:#ED2524;" d="M43.031,31.867l2.924-15.521c0.55-2.836,0.992-5.824,1.266-7.793h5.854l-0.531,4.225h0.09
		c2.104-2.924,4.896-4.209,7.865-4.209c3.66,0,5.719,2.244,5.719,6.084c0,1.008-0.183,2.703-0.365,3.798L63.31,31.849l-6.604,0.019
		l2.424-12.822c0.136-0.778,0.228-1.689,0.228-2.516c0-1.555-0.55-2.654-2.196-2.654c-2.15,0-4.665,2.699-5.58,7.64l-1.943,10.37
		L43.031,31.867z"/>
	<path style="fill:#ED2524;" d="M92.629,0.056L88.307,22.75c-0.547,2.882-0.973,6.463-1.066,9.117h-6.066l0.363-4.042h-0.092
		c-1.967,2.972-4.711,4.119-7.316,4.119c-3.799,0-6.952-3.02-6.952-8.462c0-7.777,5.626-14.914,14.085-14.914
		c0.916,0,2.104,0.139,3.068,0.506l1.73-9.019H92.629z M83.365,14.333c-0.502-0.412-1.508-0.776-2.605-0.776
		c-3.932,0-6.723,4.572-6.723,8.87c0,2.7,1.189,4.209,3.107,4.209c1.877,0,4.209-2.011,5.078-6.265L83.365,14.333z"/>
	<path style="fill:#ED2524;" d="M113.508,17.764c0,8.186-5.582,14.181-13.354,14.181c-5.674,0-9.469-3.708-9.469-9.239
		c0-7.777,5.396-14.137,13.354-14.137C110.029,8.568,113.508,12.688,113.508,17.764z M97.5,22.566c0,2.606,1.279,4.346,3.566,4.346
		c3.613,0,5.627-5.259,5.627-9.102c0-2.062-0.867-4.254-3.523-4.254C99.375,13.557,97.455,19.092,97.5,22.566z"/>
	<path style="fill:#ED2524;" d="M112.945,30.017c0-1.255,0.893-2.331,2.219-2.331c1.123,0,1.896,0.799,1.896,1.943
		c0,1.349-0.961,2.287-2.264,2.287C113.678,31.916,112.945,31.115,112.945,30.017z"/>
	<path style="fill:#ED2524;" d="M121.686,20.362l0.52,5.055c0.117,1.421,0.258,2.294,0.309,3.146h0.094
		c0.281-0.83,0.66-1.704,1.273-3.121l2.342-5.079h3.805l-6.451,11.556h-3.453l-1.959-11.556H121.686z"/>
	<path style="fill:#ED2524;" d="M129.395,31.918l1.463-7.801c0.285-1.465,0.475-2.741,0.619-3.755h3.023l-0.236,1.913h0.045
		c1.088-1.514,2.529-2.175,4.066-2.175c1.891,0,2.955,1.159,2.955,3.144c0,0.52-0.094,1.396-0.189,1.963l-1.277,6.711h-3.402
		l1.205-6.406c0.07-0.4,0.117-0.872,0.117-1.299c0-0.805-0.281-1.37-1.133-1.37c-1.111,0-2.41,1.396-2.885,3.945l-0.967,5.13
		H129.395z"/>
	<g>
		<path style="fill:#09509E;" d="M121.232,2.64c-1.43,0-2.639,0.925-3.064,2.212c-0.01,0.029-0.016,0.059-0.027,0.086l-0.07,0.279
			l-1.787,7.75h4.51c1.348,0,2.488-0.854,2.928-2.052l0.17-0.736l1.742-7.539H121.232z"/>
		<path style="fill:#F27023;" d="M129.734,0.056c-1.473,0-2.713,0.988-3.1,2.344c-0.029,0.101-0.053,0.204-0.068,0.31L123.6,15.551
			h4.4c1.508,0,2.775-1.037,3.125-2.436v0.003h0.002l3.018-13.063H129.734z"/>
		<path style="fill:#50B748;" d="M137.057,2.64c-1.377,0-2.551,0.861-3.014,2.078c-0.023,0.062-0.107,0.321-0.107,0.321
			l-1.828,7.928h4.4c1.514,0,2.781-1.039,3.131-2.445l0,0l0,0l1.82-7.882H137.057z"/>
		<path style="fill:#FFFFFF;" d="M119.268,5.5c-0.248,0.205-0.408,0.457-0.455,0.656l-0.93,4.203h0.051
			c0.293,0,0.564-0.104,0.809-0.307c0.25-0.203,0.408-0.453,0.469-0.742l0.238-1.066h2.002c0.287,0,0.561-0.105,0.816-0.311
			c0.25-0.202,0.406-0.451,0.471-0.742l0.008-0.055h-3.047l0.186-0.839h2.891c0.291,0,0.559-0.103,0.811-0.308
			c0.244-0.202,0.4-0.458,0.467-0.744l0.012-0.055h-3.984C119.787,5.191,119.514,5.297,119.268,5.5z"/>
		<path style="fill:#FFFFFF;" d="M139.623,5.441c-0.16-0.159-0.369-0.24-0.623-0.24h-3.984l-0.006,0.033
			c-0.018,0.08-0.023,0.152-0.023,0.221c0,0.243,0.074,0.449,0.242,0.608c0.16,0.159,0.365,0.24,0.621,0.24h0.859l-0.863,4.056
			h0.055c0.287,0,0.559-0.102,0.809-0.307c0.244-0.203,0.4-0.451,0.459-0.738l0.639-3.011h2.025l0.01-0.034
			c0.012-0.074,0.02-0.148,0.02-0.227C139.861,5.805,139.781,5.601,139.623,5.441z"/>
		<path style="fill:#FFFFFF;" d="M130.877,5.191h-2.695l0,0h-1.104l-1.1,5.168h0.053c0.289,0,0.561-0.104,0.809-0.307
			c0.246-0.203,0.4-0.453,0.461-0.742l0.225-1.061h2.721c0.289,0,0.561-0.104,0.807-0.307c0.248-0.201,0.4-0.451,0.469-0.748
			l0.203-0.933c0.014-0.073,0.023-0.149,0.023-0.226c0-0.24-0.082-0.445-0.242-0.604C131.34,5.277,131.133,5.191,130.877,5.191z
			 M127.945,6.298h2.666l-0.182,0.847h-2.672L127.945,6.298z"/>
	</g>
</g>
</svg>
